<svg width="192mm" height="105mm" version="1.1" viewBox="0 0 192 105" xmlns="http://www.w3.org/2000/svg" xmlns:xlink="http://www.w3.org/1999/xlink"><rect width="192" height="105" fill="#fff"/>
 <g stroke="#000" stroke-width=".6"><path d="m190 59h-36m-151-56h187m-145 24h77m-57-24v40m65 54v-63m-57 16h34v53h54v-44m-7 13v-24m-24-28v-17m-85 0v40m45 7v47m-45-40v7h20v-7m-10 7v33m-52 0h187m-163-94v94m-24-47h34m93 29h16m-16-38h16m8-7v-31m0 83v11" fill="none"/><path d="m134 67h-8m4 0l-4-6h8zm4-14h-8m4 0-4-6h8z" fill="#fff"/>
 <g fill="#fff"><rect x="43" y="10" width="4" height="10"/><rect x="63" y="10" width="4" height="10"/><rect x="25" y="10" width="4" height="10"/><rect x="128" y="83" width="4" height="10"/><rect x="25" y="77" width="4" height="10"/><rect x="53" y="77" width="4" height="10"/><rect x="105" y="70" width="4" height="10"/><rect x="88" y="70" width="4" height="10"/></g></g>
 <g stroke="#000">
 <g id="a"><path d="m37 46v8"/><circle cx="40" cy="50" r="7" fill="none"/><path d="m37 52c1 .6 8 5 8 5m-8-9 8-5" stroke-width=".6"/><path d="m41.3 53.25 2 2.7-3.3-1 1-.5" stroke="none"/></g>
 <g id="c" fill="none"><path d="m20 45v10m-2-10v10"/><path d="m19 45v10" stroke="#fff"/></g>
 <g id="b"><path d="m122 23v8"/><circle cx="125" cy="27" r="7" fill="none"/><path d="m122 29c1 1 8 5 8 5m-8-9 8-5" stroke-width=".6"/><path d="m125.5 24-3.3.7 2.2-2.6v1.3" stroke="none"/></g>
 <use transform="translate(24 52)" xlink:href="#b"/><use transform="translate(109-9)" xlink:href="#a"/><use transform="matrix(-1 0 0 1 110 0)" xlink:href="#a"/><use transform="translate(150 9)" xlink:href="#c"/></g>
 <circle cx="27" cy="3" r="1"/><circle cx="45" cy="3" r="1"/><circle cx="65" cy="3" r="1"/><circle cx="45" cy="27" r="1"/><circle cx="27" cy="50" r="1"/><circle cx="27" cy="97" r="1"/><circle cx="55" cy="97" r="1"/><circle cx="55" cy="64" r="1"/><circle cx="90" cy="50" r="1"/><circle cx="90" cy="97" r="1"/><circle cx="130" cy="3" r="1"/><circle cx="154" cy="3" r="1"/><circle cx="130" cy="41" r="1"/><circle cx="154" cy="59" r="1"/><circle cx="161" cy="59" r="1"/><circle cx="130" cy="79" r="1"/><circle cx="154" cy="97" r="1"/><circle cx="130" cy="97" r="1"/>
 <g font-family="Times" font-size="6px"><text x="58" y="84">R5</text><text x="133" y="90">R6</text><text x="79" y="77">R7</text><text x="30" y="16">R1</text><text x="3" y="48">Input</text><text x="30" y="84">R2</text><text x="48" y="16">R3</text><text x="68" y="16">R4</text><text x="110" y="77">R8</text><text x="15" y="43">C1</text><text x="165" y="52">C2</text><text x="173" y="57">Output</text><text x="162" y="95">0V (ground)</text><text x="164" y="9">+V supply</text><text x="36" y="40">Q1</text><text x="67" y="40">Q2</text><text x="121" y="17">Q3</text><text x="145" y="31">Q4</text><text x="145" y="69">Q5</text><text x="119" y="52">D1</text>
 <text x="119" y="66">D2</text></g></svg>